STARTFONT 2.1
FONT -FontForge-Shadows Into Light-Book-R-Normal--20-200-72-72-P-83-ISO10646-1
SIZE 20 72 72
FONTBOUNDINGBOX 28 33 -3 -9
COMMENT "Generated by fontforge, http://fontforge.sourceforge.net"
COMMENT "Copyright (c) 2010, Kimberly Geswein (kimberlygeswein.com)"
STARTPROPERTIES 39
FOUNDRY "FontForge"
FAMILY_NAME "Shadows Into Light"
WEIGHT_NAME "Book"
SLANT "R"
SETWIDTH_NAME "Normal"
ADD_STYLE_NAME ""
PIXEL_SIZE 20
POINT_SIZE 200
RESOLUTION_X 72
RESOLUTION_Y 72
SPACING "P"
AVERAGE_WIDTH 83
CHARSET_REGISTRY "ISO10646"
CHARSET_ENCODING "1"
FONTNAME_REGISTRY ""
CHARSET_COLLECTIONS "ISO8859-2 ISO8859-9 ISO8859-4 ISO10646-1"
FONT_NAME "ShadowsIntoLight"
FACE_NAME "Shadows Into Light"
COPYRIGHT "Copyright (c) 2010, Kimberly Geswein (kimberlygeswein.com)"
FONT_VERSION "001.000"
FONT_ASCENT 16
FONT_DESCENT 4
UNDERLINE_POSITION 0
UNDERLINE_THICKNESS 0
X_HEIGHT 11
CAP_HEIGHT 13
RAW_ASCENT 799
RAW_DESCENT 200
NORM_SPACE 9
RELATIVE_WEIGHT 40
RELATIVE_SETWIDTH 50
SUPERSCRIPT_X 0
SUPERSCRIPT_Y 9
SUPERSCRIPT_SIZE 13
SUBSCRIPT_X 0
SUBSCRIPT_Y 2
SUBSCRIPT_SIZE 13
AVG_LOWERCASE_WIDTH 75
AVG_UPPERCASE_WIDTH 98
ENDPROPERTIES
CHARS 352
STARTCHAR space
ENCODING 32
SWIDTH 450 0
DWIDTH 9 0
BBX 1 1 0 0
BITMAP
00
ENDCHAR
STARTCHAR exclam
ENCODING 33
SWIDTH 137 0
DWIDTH 3 0
BBX 2 17 0 0
BITMAP
80
80
80
80
80
80
80
80
C0
C0
00
00
00
00
00
00
40
ENDCHAR
STARTCHAR quotedbl
ENCODING 34
SWIDTH 212 0
DWIDTH 4 0
BBX 3 6 1 10
BITMAP
C0
A0
A0
A0
A0
80
ENDCHAR
STARTCHAR numbersign
ENCODING 35
SWIDTH 450 0
DWIDTH 9 0
BBX 8 11 1 2
BITMAP
08
48
48
2E
B8
69
2E
2C
34
E4
24
ENDCHAR
STARTCHAR dollar
ENCODING 36
SWIDTH 445 0
DWIDTH 9 0
BBX 8 18 0 -2
BITMAP
08
08
08
0E
18
28
48
88
CC
3B
09
09
0E
1C
1C
04
04
04
ENDCHAR
STARTCHAR percent
ENCODING 37
SWIDTH 450 0
DWIDTH 9 0
BBX 9 16 0 0
BITMAP
0200
0200
6400
D400
9400
A800
4800
0800
0900
1380
1280
1300
1300
1000
2000
2000
ENDCHAR
STARTCHAR ampersand
ENCODING 38
SWIDTH 356 0
DWIDTH 7 0
BBX 7 9 0 2
BITMAP
10
10
12
74
98
98
A8
48
10
ENDCHAR
STARTCHAR quotesingle
ENCODING 39
SWIDTH 155 0
DWIDTH 3 0
BBX 1 6 1 7
BITMAP
80
80
80
80
80
80
ENDCHAR
STARTCHAR parenleft
ENCODING 40
SWIDTH 291 0
DWIDTH 6 0
BBX 5 17 0 0
BITMAP
08
08
10
10
20
20
40
40
40
80
80
80
80
40
40
20
18
ENDCHAR
STARTCHAR parenright
ENCODING 41
SWIDTH 241 0
DWIDTH 5 0
BBX 4 15 0 0
BITMAP
C0
40
20
10
10
10
10
10
10
10
10
10
20
20
20
ENDCHAR
STARTCHAR asterisk
ENCODING 42
SWIDTH 481 0
DWIDTH 10 0
BBX 9 10 0 1
BITMAP
1000
1200
1400
F980
1E00
FC00
1B00
2800
4800
0800
ENDCHAR
STARTCHAR plus
ENCODING 43
SWIDTH 466 0
DWIDTH 9 0
BBX 9 9 0 2
BITMAP
1000
1000
1000
1180
1E00
F800
1800
0800
0800
ENDCHAR
STARTCHAR comma
ENCODING 44
SWIDTH 112 0
DWIDTH 2 0
BBX 1 4 1 -2
BITMAP
80
80
80
80
ENDCHAR
STARTCHAR hyphen
ENCODING 45
SWIDTH 399 0
DWIDTH 8 0
BBX 8 3 0 4
BITMAP
01
0F
F0
ENDCHAR
STARTCHAR period
ENCODING 46
SWIDTH 128 0
DWIDTH 3 0
BBX 2 1 0 0
BITMAP
C0
ENDCHAR
STARTCHAR slash
ENCODING 47
SWIDTH 306 0
DWIDTH 6 0
BBX 6 16 0 -2
BITMAP
0C
08
08
08
10
10
10
20
20
20
40
40
40
80
80
80
ENDCHAR
STARTCHAR zero
ENCODING 48
SWIDTH 308 0
DWIDTH 6 0
BBX 5 11 1 0
BITMAP
20
D0
90
88
88
88
88
90
90
90
60
ENDCHAR
STARTCHAR one
ENCODING 49
SWIDTH 112 0
DWIDTH 2 0
BBX 1 13 1 0
BITMAP
80
80
80
80
80
80
80
80
80
80
80
80
80
ENDCHAR
STARTCHAR two
ENCODING 50
SWIDTH 512 0
DWIDTH 10 0
BBX 10 12 0 0
BITMAP
0800
3C00
6400
C400
0400
0400
0400
0800
0800
11C0
1E00
2000
ENDCHAR
STARTCHAR three
ENCODING 51
SWIDTH 461 0
DWIDTH 9 0
BBX 9 14 0 0
BITMAP
0C00
7400
C400
0400
0800
1600
3900
6080
0080
0100
0300
0600
0C00
1000
ENDCHAR
STARTCHAR four
ENCODING 52
SWIDTH 503 0
DWIDTH 10 0
BBX 10 16 0 0
BITMAP
0200
0200
0600
0600
0A00
1A00
1200
2200
23C0
7E00
8200
0200
0200
0200
0200
0200
ENDCHAR
STARTCHAR five
ENCODING 53
SWIDTH 478 0
DWIDTH 10 0
BBX 9 14 0 0
BITMAP
0180
5E00
E000
4000
4000
4E00
5A00
6200
4200
0200
0400
0C00
1800
1000
ENDCHAR
STARTCHAR six
ENCODING 54
SWIDTH 375 0
DWIDTH 8 0
BBX 7 16 0 0
BITMAP
20
20
20
20
40
40
40
40
46
4A
92
92
64
64
68
30
ENDCHAR
STARTCHAR seven
ENCODING 55
SWIDTH 458 0
DWIDTH 9 0
BBX 9 15 0 0
BITMAP
0380
FF00
0100
0200
0200
0200
0200
0400
0400
0400
0400
0400
0400
0400
0600
ENDCHAR
STARTCHAR eight
ENCODING 56
SWIDTH 333 0
DWIDTH 7 0
BBX 6 14 0 0
BITMAP
18
2C
5C
44
84
C8
48
30
10
28
24
24
24
38
ENDCHAR
STARTCHAR nine
ENCODING 57
SWIDTH 475 0
DWIDTH 10 0
BBX 9 14 0 0
BITMAP
0600
1D00
3300
2700
4500
4900
9100
E100
0080
0080
0080
0080
0080
0080
ENDCHAR
STARTCHAR colon
ENCODING 58
SWIDTH 120 0
DWIDTH 2 0
BBX 2 7 0 2
BITMAP
80
40
00
00
00
40
40
ENDCHAR
STARTCHAR semicolon
ENCODING 59
SWIDTH 121 0
DWIDTH 2 0
BBX 1 8 1 -2
BITMAP
80
00
00
00
80
80
80
80
ENDCHAR
STARTCHAR less
ENCODING 60
SWIDTH 409 0
DWIDTH 8 0
BBX 7 10 1 3
BITMAP
02
06
0C
18
20
C0
C0
60
18
0E
ENDCHAR
STARTCHAR equal
ENCODING 61
SWIDTH 433 0
DWIDTH 9 0
BBX 8 5 0 2
BITMAP
1F
70
01
0F
F0
ENDCHAR
STARTCHAR greater
ENCODING 62
SWIDTH 450 0
DWIDTH 9 0
BBX 7 11 1 2
BITMAP
C0
60
18
06
02
04
08
10
60
C0
80
ENDCHAR
STARTCHAR question
ENCODING 63
SWIDTH 445 0
DWIDTH 9 0
BBX 9 18 0 0
BITMAP
3F00
E180
0100
0100
0200
0600
0C00
1800
1000
3000
1E00
0000
0000
0000
0000
0000
0000
0800
ENDCHAR
STARTCHAR at
ENCODING 64
SWIDTH 945 0
DWIDTH 19 0
BBX 18 18 1 0
BITMAP
00F800
030400
040200
080200
10C100
234100
46C100
44C100
894200
934200
923C00
9C0000
800000
8000C0
800180
C00600
603800
1FC000
ENDCHAR
STARTCHAR A
ENCODING 65
SWIDTH 390 0
DWIDTH 8 0
BBX 9 15 1 0
BITMAP
4000
6000
6000
6000
5000
D000
9000
8800
8F80
9800
EC00
8400
8400
8400
0200
ENDCHAR
STARTCHAR B
ENCODING 66
SWIDTH 537 0
DWIDTH 11 0
BBX 10 15 0 0
BITMAP
0200
9F00
6100
4200
4400
4BC0
5C40
7040
2080
2180
2300
2600
2400
2800
2000
ENDCHAR
STARTCHAR C
ENCODING 67
SWIDTH 487 0
DWIDTH 10 0
BBX 9 15 0 0
BITMAP
0400
1A00
1200
2000
2000
2000
4000
4000
4000
4080
4080
8100
4300
4400
3800
ENDCHAR
STARTCHAR D
ENCODING 68
SWIDTH 554 0
DWIDTH 11 0
BBX 11 15 0 0
BITMAP
2000
3E00
61C0
A040
2020
2020
2040
2040
2080
2180
2300
2600
1400
1800
1000
ENDCHAR
STARTCHAR E
ENCODING 69
SWIDTH 474 0
DWIDTH 10 0
BBX 8 15 1 0
BITMAP
02
9C
F0
C0
80
80
84
98
E0
C0
C1
C6
C8
F0
C0
ENDCHAR
STARTCHAR F
ENCODING 70
SWIDTH 428 0
DWIDTH 9 0
BBX 7 14 1 0
BITMAP
06
98
E0
80
80
80
82
8C
B0
C0
80
80
80
80
ENDCHAR
STARTCHAR G
ENCODING 71
SWIDTH 591 0
DWIDTH 12 0
BBX 11 15 0 -2
BITMAP
0300
0400
0800
1000
2000
20E0
43C0
4040
40C0
81C0
8340
7E40
3840
0040
0040
ENDCHAR
STARTCHAR H
ENCODING 72
SWIDTH 424 0
DWIDTH 9 0
BBX 7 13 1 0
BITMAP
84
84
84
84
84
84
9C
E4
C2
82
82
82
82
ENDCHAR
STARTCHAR I
ENCODING 73
SWIDTH 153 0
DWIDTH 3 0
BBX 2 15 1 0
BITMAP
80
80
80
80
80
80
80
80
80
80
80
80
80
40
40
ENDCHAR
STARTCHAR J
ENCODING 74
SWIDTH 371 0
DWIDTH 7 0
BBX 7 15 0 -1
BITMAP
04
04
04
04
04
04
04
06
02
02
02
82
82
42
3C
ENDCHAR
STARTCHAR K
ENCODING 75
SWIDTH 524 0
DWIDTH 10 0
BBX 9 14 1 0
BITMAP
8000
8200
8400
8C00
8800
9000
B000
A000
C000
4000
7F80
4000
4000
4000
ENDCHAR
STARTCHAR L
ENCODING 76
SWIDTH 537 0
DWIDTH 11 0
BBX 10 13 1 0
BITMAP
8000
8000
8000
8000
8000
8000
8000
8000
80C0
8180
8600
B800
E000
ENDCHAR
STARTCHAR M
ENCODING 77
SWIDTH 682 0
DWIDTH 14 0
BBX 12 15 1 0
BITMAP
C040
C040
A0A0
A0A0
90A0
9120
8920
8920
8520
8620
C220
C020
C010
C010
C010
ENDCHAR
STARTCHAR N
ENCODING 78
SWIDTH 541 0
DWIDTH 11 0
BBX 9 15 1 0
BITMAP
0100
0100
8100
C100
C100
A100
B100
9900
8980
8580
C380
4380
4180
4080
4000
ENDCHAR
STARTCHAR O
ENCODING 79
SWIDTH 382 0
DWIDTH 8 0
BBX 7 13 0 0
BITMAP
1C
22
22
42
42
42
42
82
82
86
44
48
30
ENDCHAR
STARTCHAR P
ENCODING 80
SWIDTH 508 0
DWIDTH 10 0
BBX 10 16 0 0
BITMAP
2F80
70C0
E040
60C0
6080
4300
6600
7800
6000
2000
2000
2000
2000
2000
2000
2000
ENDCHAR
STARTCHAR Q
ENCODING 81
SWIDTH 512 0
DWIDTH 10 0
BBX 9 15 1 0
BITMAP
3E00
6200
4100
8100
8100
8100
8100
8D00
8500
8500
8300
8200
8300
4500
3880
ENDCHAR
STARTCHAR R
ENCODING 82
SWIDTH 503 0
DWIDTH 10 0
BBX 9 16 1 0
BITMAP
8000
BF00
C180
8100
8200
8C00
B000
C000
8000
E000
B800
8E00
8180
8000
8000
8000
ENDCHAR
STARTCHAR S
ENCODING 83
SWIDTH 541 0
DWIDTH 11 0
BBX 10 15 0 0
BITMAP
0100
0F00
1000
2000
4000
C000
8000
8000
6000
1F80
0040
0040
0180
1E00
2000
ENDCHAR
STARTCHAR T
ENCODING 84
SWIDTH 595 0
DWIDTH 12 0
BBX 14 14 0 0
BITMAP
03FC
7F00
8200
0300
0100
0100
0100
0100
0100
0100
0100
0100
0180
0080
ENDCHAR
STARTCHAR U
ENCODING 85
SWIDTH 450 0
DWIDTH 9 0
BBX 8 14 1 -2
BITMAP
82
82
82
82
86
86
86
86
8E
8A
D2
61
01
01
ENDCHAR
STARTCHAR V
ENCODING 86
SWIDTH 524 0
DWIDTH 10 0
BBX 10 15 0 0
BITMAP
0040
0040
0040
8080
4080
4080
2080
2180
3100
1100
1900
0B00
0E00
0600
0200
ENDCHAR
STARTCHAR W
ENCODING 87
SWIDTH 878 0
DWIDTH 18 0
BBX 17 15 0 0
BITMAP
000080
000080
004100
C0C100
40C100
40E100
20A200
212200
213200
311200
121400
120C00
1A0C00
0C0400
0C0000
ENDCHAR
STARTCHAR X
ENCODING 88
SWIDTH 461 0
DWIDTH 9 0
BBX 9 14 0 0
BITMAP
0080
4100
6100
2200
3600
1400
1800
0800
1C00
1400
2200
4200
C100
0100
ENDCHAR
STARTCHAR Y
ENCODING 89
SWIDTH 483 0
DWIDTH 10 0
BBX 9 16 0 0
BITMAP
0080
0080
0080
8080
4100
6100
2100
1200
0A00
0600
0400
0400
0400
0800
0800
0800
ENDCHAR
STARTCHAR Z
ENCODING 90
SWIDTH 670 0
DWIDTH 13 0
BBX 13 14 0 0
BITMAP
7FE0
0060
0040
0080
0180
0300
0600
0400
0800
1800
3000
2000
4038
FFF0
ENDCHAR
STARTCHAR bracketleft
ENCODING 91
SWIDTH 470 0
DWIDTH 9 0
BBX 9 24 0 -2
BITMAP
FF00
4000
4000
4000
4000
4000
4000
4000
4000
4000
4000
4000
4000
2000
2000
2000
2000
2000
2000
2000
2000
2080
2780
3800
ENDCHAR
STARTCHAR backslash
ENCODING 92
SWIDTH 554 0
DWIDTH 11 0
BBX 11 20 0 0
BITMAP
C000
4000
2000
2000
1000
1000
1800
0800
0C00
0400
0400
0200
0200
0100
0100
0080
0080
00C0
0040
0060
ENDCHAR
STARTCHAR bracketright
ENCODING 93
SWIDTH 512 0
DWIDTH 10 0
BBX 10 26 0 -2
BITMAP
0080
FF80
0180
0180
0080
0080
0080
0080
0080
0080
0080
0080
0080
0080
0080
0080
0080
0080
0080
0080
0080
0080
00C0
00C0
01C0
0F00
ENDCHAR
STARTCHAR asciicircum
ENCODING 94
SWIDTH 390 0
DWIDTH 8 0
BBX 7 6 1 13
BITMAP
20
30
48
48
86
80
ENDCHAR
STARTCHAR underscore
ENCODING 95
SWIDTH 612 0
DWIDTH 12 0
BBX 12 4 0 0
BITMAP
0010
01F0
1F00
E000
ENDCHAR
STARTCHAR grave
ENCODING 96
SWIDTH 155 0
DWIDTH 3 0
BBX 2 3 0 12
BITMAP
80
40
40
ENDCHAR
STARTCHAR a
ENCODING 97
SWIDTH 366 0
DWIDTH 7 0
BBX 7 11 0 0
BITMAP
0C
1C
34
24
6C
4C
DA
92
B2
E2
42
ENDCHAR
STARTCHAR b
ENCODING 98
SWIDTH 442 0
DWIDTH 9 0
BBX 7 17 1 0
BITMAP
80
80
80
80
80
80
80
9E
A2
C2
C2
82
86
8C
98
F0
C0
ENDCHAR
STARTCHAR c
ENCODING 99
SWIDTH 390 0
DWIDTH 8 0
BBX 6 12 1 0
BITMAP
20
50
90
90
80
80
80
84
84
84
88
70
ENDCHAR
STARTCHAR d
ENCODING 100
SWIDTH 316 0
DWIDTH 6 0
BBX 6 20 0 -2
BITMAP
04
08
08
08
04
04
04
04
38
68
44
C4
8C
8C
8C
94
94
64
04
04
ENDCHAR
STARTCHAR e
ENCODING 101
SWIDTH 461 0
DWIDTH 9 0
BBX 9 11 0 0
BITMAP
0800
1E00
2200
2400
7800
6000
C180
4100
4200
4400
3800
ENDCHAR
STARTCHAR f
ENCODING 102
SWIDTH 345 0
DWIDTH 7 0
BBX 7 18 0 0
BITMAP
18
38
34
20
20
20
20
20
2E
38
E0
20
20
20
20
20
20
20
ENDCHAR
STARTCHAR g
ENCODING 103
SWIDTH 437 0
DWIDTH 9 0
BBX 8 20 0 -9
BITMAP
0E
12
26
27
47
4B
4B
91
F1
61
01
01
01
01
03
02
02
04
38
10
ENDCHAR
STARTCHAR h
ENCODING 104
SWIDTH 466 0
DWIDTH 9 0
BBX 8 15 1 0
BITMAP
80
80
80
80
80
8E
99
B1
B1
A1
E1
C1
C1
81
81
ENDCHAR
STARTCHAR i
ENCODING 105
SWIDTH 132 0
DWIDTH 3 0
BBX 2 15 0 0
BITMAP
80
00
00
00
40
40
40
40
40
40
40
40
40
40
40
ENDCHAR
STARTCHAR j
ENCODING 106
SWIDTH 112 0
DWIDTH 2 0
BBX 5 23 -3 -7
BITMAP
08
00
00
00
00
00
08
08
08
08
08
08
08
08
08
08
08
08
08
08
88
D0
30
ENDCHAR
STARTCHAR k
ENCODING 107
SWIDTH 428 0
DWIDTH 9 0
BBX 7 16 1 -1
BITMAP
80
80
80
82
86
84
8C
98
90
A0
C0
C0
E0
9E
82
80
ENDCHAR
STARTCHAR l
ENCODING 108
SWIDTH 137 0
DWIDTH 3 0
BBX 2 17 0 0
BITMAP
80
40
40
40
40
40
40
40
40
40
40
40
40
40
40
40
40
ENDCHAR
STARTCHAR m
ENCODING 109
SWIDTH 579 0
DWIDTH 12 0
BBX 10 12 1 0
BITMAP
8000
8000
9180
B380
BA80
AA80
CC80
CC80
CC80
C880
C040
8000
ENDCHAR
STARTCHAR n
ENCODING 110
SWIDTH 483 0
DWIDTH 10 0
BBX 8 12 1 0
BITMAP
84
8E
92
91
A1
A1
A1
A1
C1
C1
C1
C1
ENDCHAR
STARTCHAR o
ENCODING 111
SWIDTH 266 0
DWIDTH 5 0
BBX 5 11 0 0
BITMAP
70
50
48
48
88
88
88
88
90
50
60
ENDCHAR
STARTCHAR p
ENCODING 112
SWIDTH 482 0
DWIDTH 10 0
BBX 8 15 1 -5
BITMAP
8F
B1
C1
83
86
8C
B0
E0
C0
80
80
80
80
80
80
ENDCHAR
STARTCHAR q
ENCODING 113
SWIDTH 408 0
DWIDTH 8 0
BBX 8 14 0 -5
BITMAP
1C
32
22
46
46
46
8A
71
01
01
01
01
01
01
ENDCHAR
STARTCHAR r
ENCODING 114
SWIDTH 396 0
DWIDTH 8 0
BBX 6 10 1 0
BITMAP
9C
B0
A0
A0
A0
E0
C0
40
40
40
ENDCHAR
STARTCHAR s
ENCODING 115
SWIDTH 366 0
DWIDTH 7 0
BBX 7 10 0 0
BITMAP
1C
20
40
40
84
7E
02
04
0C
38
ENDCHAR
STARTCHAR t
ENCODING 116
SWIDTH 268 0
DWIDTH 5 0
BBX 7 15 -1 0
BITMAP
20
20
20
20
2E
78
E0
20
20
20
20
20
20
20
30
ENDCHAR
STARTCHAR u
ENCODING 117
SWIDTH 387 0
DWIDTH 8 0
BBX 6 10 1 0
BITMAP
88
88
88
88
88
88
88
9C
B4
64
ENDCHAR
STARTCHAR v
ENCODING 118
SWIDTH 354 0
DWIDTH 7 0
BBX 7 11 0 0
BITMAP
04
06
86
C6
44
24
24
14
1C
0C
04
ENDCHAR
STARTCHAR w
ENCODING 119
SWIDTH 566 0
DWIDTH 11 0
BBX 10 10 1 0
BITMAP
9880
9880
9480
5280
5280
7180
31C0
30C0
30C0
1000
ENDCHAR
STARTCHAR x
ENCODING 120
SWIDTH 454 0
DWIDTH 9 0
BBX 9 13 0 -1
BITMAP
0400
0400
0400
CC00
6800
3800
1800
1C00
1600
1300
1180
1000
3000
ENDCHAR
STARTCHAR y
ENCODING 121
SWIDTH 363 0
DWIDTH 7 0
BBX 7 17 0 -7
BITMAP
02
C2
42
22
22
12
1A
0E
06
06
06
04
04
04
04
04
04
ENDCHAR
STARTCHAR z
ENCODING 122
SWIDTH 618 0
DWIDTH 12 0
BBX 12 10 1 0
BITMAP
0600
3E00
C400
0400
0800
0800
1000
1030
37E0
3C00
ENDCHAR
STARTCHAR braceleft
ENCODING 123
SWIDTH 348 0
DWIDTH 7 0
BBX 7 19 0 -2
BITMAP
1C
22
60
20
20
20
10
E0
40
20
70
C0
80
80
80
40
60
30
08
ENDCHAR
STARTCHAR bar
ENCODING 124
SWIDTH 137 0
DWIDTH 3 0
BBX 2 17 0 0
BITMAP
80
40
40
40
40
40
40
40
40
40
40
40
40
40
40
40
40
ENDCHAR
STARTCHAR braceright
ENCODING 125
SWIDTH 348 0
DWIDTH 7 0
BBX 6 19 0 -2
BITMAP
60
90
08
08
08
10
10
1C
0C
08
10
0C
04
04
04
04
04
18
70
ENDCHAR
STARTCHAR asciitilde
ENCODING 126
SWIDTH 458 0
DWIDTH 9 0
BBX 7 3 1 11
BITMAP
F2
96
0C
ENDCHAR
STARTCHAR nonbreakingspace
ENCODING 160
SWIDTH 450 0
DWIDTH 9 0
BBX 1 1 0 0
BITMAP
00
ENDCHAR
STARTCHAR exclamdown
ENCODING 161
SWIDTH 137 0
DWIDTH 3 0
BBX 2 13 0 -3
BITMAP
40
00
00
00
00
40
C0
80
80
80
40
40
40
ENDCHAR
STARTCHAR cent
ENCODING 162
SWIDTH 394 0
DWIDTH 8 0
BBX 6 15 1 -1
BITMAP
20
20
20
78
A8
A0
A0
A0
90
94
94
94
98
70
10
ENDCHAR
STARTCHAR sterling
ENCODING 163
SWIDTH 539 0
DWIDTH 11 0
BBX 10 13 0 0
BITMAP
0380
0C40
0800
1000
1600
F800
2000
2000
2000
2000
2000
2FC0
3040
ENDCHAR
STARTCHAR currency
ENCODING 164
SWIDTH 500 0
DWIDTH 10 0
BBX 7 11 1 2
BITMAP
02
42
7E
24
24
24
24
24
6C
DC
84
ENDCHAR
STARTCHAR yen
ENCODING 165
SWIDTH 478 0
DWIDTH 10 0
BBX 8 16 1 0
BITMAP
43
46
64
2C
38
18
18
10
1E
FC
10
FE
10
10
10
10
ENDCHAR
STARTCHAR brokenbar
ENCODING 166
SWIDTH 137 0
DWIDTH 3 0
BBX 2 17 0 0
BITMAP
80
40
40
40
40
40
40
00
40
40
40
40
40
40
40
40
40
ENDCHAR
STARTCHAR section
ENCODING 167
SWIDTH 366 0
DWIDTH 7 0
BBX 7 15 0 0
BITMAP
1C
20
40
C0
80
FE
62
44
4C
9C
7E
02
04
0C
38
ENDCHAR
STARTCHAR dieresis
ENCODING 168
SWIDTH 306 0
DWIDTH 6 0
BBX 4 1 1 14
BITMAP
D0
ENDCHAR
STARTCHAR copyright
ENCODING 169
SWIDTH 485 0
DWIDTH 10 0
BBX 9 13 0 0
BITMAP
1F00
1180
2080
7C80
5280
5080
5080
9180
9380
8D00
4200
4C00
3800
ENDCHAR
STARTCHAR ordfeminine
ENCODING 170
SWIDTH 227 0
DWIDTH 5 0
BBX 4 5 0 3
BITMAP
30
50
B0
D0
90
ENDCHAR
STARTCHAR guillemotleft
ENCODING 171
SWIDTH 652 0
DWIDTH 13 0
BBX 11 10 1 3
BITMAP
0220
0640
0D80
1B00
2600
C800
CC00
6600
1980
0EC0
ENDCHAR
STARTCHAR logicalnot
ENCODING 172
SWIDTH 539 0
DWIDTH 11 0
BBX 9 5 1 3
BITMAP
FF80
0080
0080
0080
0080
ENDCHAR
STARTCHAR uni00AD
ENCODING 173
SWIDTH 399 0
DWIDTH 8 0
BBX 8 3 0 4
BITMAP
01
0F
F0
ENDCHAR
STARTCHAR registered
ENCODING 174
SWIDTH 382 0
DWIDTH 8 0
BBX 9 13 0 0
BITMAP
1E00
1100
2080
5E80
5180
5680
5880
9C80
9280
9180
4100
4600
3800
ENDCHAR
STARTCHAR macron
ENCODING 175
SWIDTH 399 0
DWIDTH 8 0
BBX 7 2 0 13
BITMAP
1E
E0
ENDCHAR
STARTCHAR degree
ENCODING 176
SWIDTH 201 0
DWIDTH 4 0
BBX 4 3 0 8
BITMAP
60
90
70
ENDCHAR
STARTCHAR plusminus
ENCODING 177
SWIDTH 466 0
DWIDTH 9 0
BBX 8 10 0 1
BITMAP
10
10
10
11
1E
F8
18
08
1F
60
ENDCHAR
STARTCHAR twosuperior
ENCODING 178
SWIDTH 318 0
DWIDTH 6 0
BBX 6 6 0 3
BITMAP
70
90
10
20
2C
70
ENDCHAR
STARTCHAR threesuperior
ENCODING 179
SWIDTH 280 0
DWIDTH 6 0
BBX 5 8 0 3
BITMAP
70
90
20
78
08
08
10
20
ENDCHAR
STARTCHAR acute
ENCODING 180
SWIDTH 155 0
DWIDTH 3 0
BBX 3 3 0 12
BITMAP
20
60
C0
ENDCHAR
STARTCHAR mu
ENCODING 181
SWIDTH 387 0
DWIDTH 8 0
BBX 6 14 1 -3
BITMAP
88
8C
8C
8C
8C
8C
8C
9C
B4
E0
80
80
80
80
ENDCHAR
STARTCHAR paragraph
ENCODING 182
SWIDTH 447 0
DWIDTH 9 0
BBX 8 13 0 0
BITMAP
1F
7F
7D
FD
75
05
05
05
05
05
05
05
05
ENDCHAR
STARTCHAR periodcentered
ENCODING 183
SWIDTH 128 0
DWIDTH 3 0
BBX 2 2 0 4
BITMAP
40
C0
ENDCHAR
STARTCHAR cedilla
ENCODING 184
SWIDTH 322 0
DWIDTH 6 0
BBX 5 7 1 -6
BITMAP
80
80
C0
70
18
18
F0
ENDCHAR
STARTCHAR onesuperior
ENCODING 185
SWIDTH 112 0
DWIDTH 2 0
BBX 1 7 1 3
BITMAP
80
80
80
80
80
80
80
ENDCHAR
STARTCHAR ordmasculine
ENCODING 186
SWIDTH 212 0
DWIDTH 4 0
BBX 4 6 0 3
BITMAP
20
50
90
90
90
60
ENDCHAR
STARTCHAR guillemotright
ENCODING 187
SWIDTH 625 0
DWIDTH 13 0
BBX 10 11 1 2
BITMAP
CC00
6600
1980
0640
0240
04C0
0980
1300
6600
C800
8000
ENDCHAR
STARTCHAR onequarter
ENCODING 188
SWIDTH 678 0
DWIDTH 14 0
BBX 12 16 1 -2
BITMAP
0800
0800
1000
9000
9080
9180
A380
A280
A4B0
DFC0
C080
4080
8080
8080
8000
8000
ENDCHAR
STARTCHAR onehalf
ENCODING 189
SWIDTH 693 0
DWIDTH 14 0
BBX 11 16 1 -2
BITMAP
0400
0400
0800
8800
8800
8800
9700
9900
9100
A100
A100
2200
43E0
4600
4000
4000
ENDCHAR
STARTCHAR threequarters
ENCODING 190
SWIDTH 868 0
DWIDTH 17 0
BBX 13 16 1 -2
BITMAP
0060
7840
9060
10A0
38E0
64E0
02A0
0520
0D78
1BA0
2220
0220
0220
0420
0400
0400
ENDCHAR
STARTCHAR questiondown
ENCODING 191
SWIDTH 541 0
DWIDTH 11 0
BBX 8 17 2 -1
BITMAP
08
00
00
00
00
00
18
2C
04
08
10
20
40
80
81
8F
70
ENDCHAR
STARTCHAR Agrave
ENCODING 192
SWIDTH 390 0
DWIDTH 8 0
BBX 9 19 1 -1
BITMAP
4000
2000
2000
0000
4000
6000
6000
5000
5000
5000
4800
C800
CF80
9C00
E400
8400
8400
8200
0200
ENDCHAR
STARTCHAR Aacute
ENCODING 193
SWIDTH 390 0
DWIDTH 8 0
BBX 9 19 1 0
BITMAP
2000
6000
C000
0000
4000
6000
6000
6000
5000
D000
9000
8800
8F80
9800
EC00
8400
8400
8400
0200
ENDCHAR
STARTCHAR Acircumflex
ENCODING 194
SWIDTH 390 0
DWIDTH 8 0
BBX 11 21 -1 0
BITMAP
1000
3800
2800
4400
4200
8000
1000
1800
1800
1800
1400
3400
2400
2200
23E0
2600
3B00
2100
2100
2100
0080
ENDCHAR
STARTCHAR Atilde
ENCODING 195
SWIDTH 390 0
DWIDTH 8 0
BBX 10 20 0 0
BITMAP
F200
9600
0C00
0000
0000
2000
3000
3000
3000
2800
6800
4800
4400
47C0
4C00
7600
4200
4200
4200
0100
ENDCHAR
STARTCHAR Adieresis
ENCODING 196
SWIDTH 390 0
DWIDTH 8 0
BBX 9 18 1 0
BITMAP
D000
0000
0000
4000
6000
6000
6000
5000
D000
9000
8800
8F80
9800
EC00
8400
8400
8400
0200
ENDCHAR
STARTCHAR Aring
ENCODING 197
SWIDTH 390 0
DWIDTH 8 0
BBX 10 18 0 0
BITMAP
7000
9800
9800
7000
3000
3000
3000
2800
6800
4800
4400
47C0
4C00
7600
4200
4200
4200
0100
ENDCHAR
STARTCHAR AE
ENCODING 198
SWIDTH 708 0
DWIDTH 14 0
BBX 13 15 1 0
BITMAP
4030
6CC0
6700
6400
5400
D420
9440
8D80
8E00
9C00
EC18
8420
84C0
8700
0200
ENDCHAR
STARTCHAR Ccedilla
ENCODING 199
SWIDTH 487 0
DWIDTH 10 0
BBX 9 21 0 -6
BITMAP
0400
1A00
1200
2000
2000
2000
4000
4000
4000
4080
4080
8100
4300
4400
3800
1000
1000
1C00
0600
0300
1E00
ENDCHAR
STARTCHAR Egrave
ENCODING 200
SWIDTH 474 0
DWIDTH 10 0
BBX 8 18 1 0
BITMAP
40
20
10
02
9C
F0
C0
80
80
84
98
E0
C0
C1
C6
C8
F0
C0
ENDCHAR
STARTCHAR Eacute
ENCODING 201
SWIDTH 474 0
DWIDTH 10 0
BBX 8 18 1 0
BITMAP
08
18
30
02
9C
F0
C0
80
80
84
98
E0
C0
C1
C6
C8
F0
C0
ENDCHAR
STARTCHAR Ecircumflex
ENCODING 202
SWIDTH 474 0
DWIDTH 10 0
BBX 8 21 1 0
BITMAP
10
18
2C
44
42
80
02
9C
F0
C0
80
80
84
98
E0
C0
C1
C6
C8
F0
C0
ENDCHAR
STARTCHAR Edieresis
ENCODING 203
SWIDTH 474 0
DWIDTH 10 0
BBX 8 18 1 0
BITMAP
68
00
00
02
9C
F0
C0
80
80
84
98
E0
C0
C1
C6
C8
F0
C0
ENDCHAR
STARTCHAR Igrave
ENCODING 204
SWIDTH 153 0
DWIDTH 3 0
BBX 3 19 0 0
BITMAP
80
40
40
00
40
40
40
40
40
40
40
40
40
40
40
40
40
20
20
ENDCHAR
STARTCHAR Iacute
ENCODING 205
SWIDTH 153 0
DWIDTH 3 0
BBX 2 19 1 0
BITMAP
40
C0
80
00
80
80
80
80
80
80
80
80
80
80
80
80
80
40
40
ENDCHAR
STARTCHAR Icircumflex
ENCODING 206
SWIDTH 153 0
DWIDTH 3 0
BBX 7 21 -2 0
BITMAP
10
18
2C
44
42
80
10
10
10
10
10
10
10
10
10
10
10
10
10
08
08
ENDCHAR
STARTCHAR Idieresis
ENCODING 207
SWIDTH 153 0
DWIDTH 3 0
BBX 4 18 0 0
BITMAP
B0
00
00
40
40
40
40
40
40
40
40
40
40
40
40
40
20
20
ENDCHAR
STARTCHAR Eth
ENCODING 208
SWIDTH 554 0
DWIDTH 11 0
BBX 11 15 0 0
BITMAP
2000
3E00
61C0
A040
2020
2020
2040
2040
2080
2180
FF00
2600
1400
1800
1000
ENDCHAR
STARTCHAR Ntilde
ENCODING 209
SWIDTH 541 0
DWIDTH 11 0
BBX 9 18 1 0
BITMAP
F200
9600
0C00
0100
0100
8100
C100
C100
A100
B100
9900
8980
8580
C380
4380
4180
4080
4000
ENDCHAR
STARTCHAR Ograve
ENCODING 210
SWIDTH 382 0
DWIDTH 8 0
BBX 7 18 0 0
BITMAP
08
0C
04
00
00
1C
22
22
42
42
42
42
82
82
86
44
48
30
ENDCHAR
STARTCHAR Oacute
ENCODING 211
SWIDTH 382 0
DWIDTH 8 0
BBX 7 18 0 0
BITMAP
08
18
30
00
00
1C
22
22
42
42
42
42
82
82
86
44
48
30
ENDCHAR
STARTCHAR Ocircumflex
ENCODING 212
SWIDTH 382 0
DWIDTH 8 0
BBX 7 19 0 0
BITMAP
10
38
28
44
42
80
1C
22
22
42
42
42
42
82
82
86
44
48
30
ENDCHAR
STARTCHAR Otilde
ENCODING 213
SWIDTH 382 0
DWIDTH 8 0
BBX 8 17 0 0
BITMAP
79
4B
06
00
1C
22
22
42
42
42
42
82
82
86
44
48
30
ENDCHAR
STARTCHAR Odieresis
ENCODING 214
SWIDTH 382 0
DWIDTH 8 0
BBX 7 16 0 0
BITMAP
16
00
00
1C
22
22
42
42
42
42
82
82
86
44
48
30
ENDCHAR
STARTCHAR multiply
ENCODING 215
SWIDTH 454 0
DWIDTH 9 0
BBX 6 6 1 3
BITMAP
44
28
30
30
48
C8
ENDCHAR
STARTCHAR Oslash
ENCODING 216
SWIDTH 382 0
DWIDTH 8 0
BBX 7 16 0 -2
BITMAP
06
1C
26
26
4A
4A
4A
52
92
92
A6
64
68
70
40
40
ENDCHAR
STARTCHAR Ugrave
ENCODING 217
SWIDTH 450 0
DWIDTH 9 0
BBX 8 18 1 -2
BITMAP
20
30
10
00
82
82
82
82
86
86
86
86
8E
8A
D2
61
01
01
ENDCHAR
STARTCHAR Uacute
ENCODING 218
SWIDTH 450 0
DWIDTH 9 0
BBX 8 17 1 -2
BITMAP
08
18
10
82
82
82
82
86
86
86
86
8E
8A
D2
61
01
01
ENDCHAR
STARTCHAR Ucircumflex
ENCODING 219
SWIDTH 450 0
DWIDTH 9 0
BBX 8 21 1 -2
BITMAP
10
30
28
44
82
80
00
82
82
82
82
86
86
86
86
8E
8A
D2
61
01
01
ENDCHAR
STARTCHAR Udieresis
ENCODING 220
SWIDTH 450 0
DWIDTH 9 0
BBX 8 17 1 -2
BITMAP
6C
00
00
82
82
82
82
86
86
86
86
8E
8A
D2
61
01
01
ENDCHAR
STARTCHAR Yacute
ENCODING 221
SWIDTH 483 0
DWIDTH 10 0
BBX 9 19 0 0
BITMAP
0200
0600
0C00
0080
0080
0080
8080
4100
6100
2100
1200
0A00
0600
0400
0400
0400
0800
0800
0800
ENDCHAR
STARTCHAR Thorn
ENCODING 222
SWIDTH 398 0
DWIDTH 8 0
BBX 7 16 1 0
BITMAP
80
80
80
BC
E4
C2
82
84
84
88
B0
C0
80
80
80
80
ENDCHAR
STARTCHAR germandbls
ENCODING 223
SWIDTH 537 0
DWIDTH 11 0
BBX 10 15 0 0
BITMAP
0200
9F00
6100
4200
4400
4BC0
5C40
7040
2080
2180
2300
2600
2400
2800
2000
ENDCHAR
STARTCHAR agrave
ENCODING 224
SWIDTH 366 0
DWIDTH 7 0
BBX 7 15 0 0
BITMAP
20
30
10
00
0C
1C
34
24
6C
4C
DA
92
B2
E2
42
ENDCHAR
STARTCHAR aacute
ENCODING 225
SWIDTH 366 0
DWIDTH 7 0
BBX 7 15 0 0
BITMAP
08
08
10
00
0C
1C
34
24
6C
4C
DA
92
B2
E2
42
ENDCHAR
STARTCHAR acircumflex
ENCODING 226
SWIDTH 366 0
DWIDTH 7 0
BBX 7 19 0 0
BITMAP
10
30
28
44
42
80
00
00
0C
1C
34
24
6C
4C
DA
92
B2
E2
42
ENDCHAR
STARTCHAR atilde
ENCODING 227
SWIDTH 366 0
DWIDTH 7 0
BBX 8 15 0 0
BITMAP
79
4B
0E
00
0C
1C
34
24
6C
4C
DA
92
B2
E2
42
ENDCHAR
STARTCHAR adieresis
ENCODING 228
SWIDTH 366 0
DWIDTH 7 0
BBX 7 15 0 0
BITMAP
2C
00
00
00
0C
1C
34
24
6C
4C
DA
92
B2
E2
42
ENDCHAR
STARTCHAR aring
ENCODING 229
SWIDTH 366 0
DWIDTH 7 0
BBX 7 14 0 0
BITMAP
18
24
24
3C
1C
34
24
6C
4C
DA
92
B2
E2
42
ENDCHAR
STARTCHAR ae
ENCODING 230
SWIDTH 705 0
DWIDTH 14 0
BBX 14 11 0 0
BITMAP
0CE0
1D90
3530
27C0
6F00
4E04
DA08
9218
B230
E3C0
4200
ENDCHAR
STARTCHAR ccedilla
ENCODING 231
SWIDTH 390 0
DWIDTH 8 0
BBX 6 18 1 -6
BITMAP
20
50
90
90
80
80
80
84
84
84
88
70
40
60
70
08
0C
78
ENDCHAR
STARTCHAR egrave
ENCODING 232
SWIDTH 461 0
DWIDTH 9 0
BBX 9 15 0 0
BITMAP
1000
1800
0800
0000
0800
1E00
2200
2400
7800
6000
C180
4100
4200
4400
3800
ENDCHAR
STARTCHAR eacute
ENCODING 233
SWIDTH 461 0
DWIDTH 9 0
BBX 9 15 0 0
BITMAP
0400
0400
0800
0000
0800
1E00
2200
2400
7800
6000
C180
4100
4200
4400
3800
ENDCHAR
STARTCHAR ecircumflex
ENCODING 234
SWIDTH 461 0
DWIDTH 9 0
BBX 9 19 0 0
BITMAP
0800
1800
1400
2200
2100
4000
0000
0000
0800
1E00
2200
2400
7800
6000
C180
4100
4200
4400
3800
ENDCHAR
STARTCHAR edieresis
ENCODING 235
SWIDTH 461 0
DWIDTH 9 0
BBX 9 15 0 0
BITMAP
1600
0000
0000
0000
0800
1E00
2200
2400
7800
6000
C180
4100
4200
4400
3800
ENDCHAR
STARTCHAR igrave
ENCODING 236
SWIDTH 132 0
DWIDTH 3 0
BBX 2 16 0 0
BITMAP
80
C0
40
00
00
40
40
40
40
40
40
40
40
40
40
40
ENDCHAR
STARTCHAR iacute
ENCODING 237
SWIDTH 132 0
DWIDTH 3 0
BBX 2 17 1 0
BITMAP
40
C0
80
00
00
00
80
80
80
80
80
80
80
80
80
80
80
ENDCHAR
STARTCHAR icircumflex
ENCODING 238
SWIDTH 132 0
DWIDTH 3 0
BBX 7 19 -2 0
BITMAP
20
30
48
44
86
80
00
00
10
10
10
10
10
10
10
10
10
10
10
ENDCHAR
STARTCHAR idieresis
ENCODING 239
SWIDTH 132 0
DWIDTH 3 0
BBX 4 15 -1 0
BITMAP
D0
00
00
00
20
20
20
20
20
20
20
20
20
20
20
ENDCHAR
STARTCHAR eth
ENCODING 240
SWIDTH 481 0
DWIDTH 10 0
BBX 8 12 1 0
BITMAP
10
10
08
3F
44
04
72
DA
8E
84
4C
38
ENDCHAR
STARTCHAR ntilde
ENCODING 241
SWIDTH 483 0
DWIDTH 10 0
BBX 8 16 1 0
BITMAP
71
CB
0C
00
84
8E
92
91
A1
A1
A1
A1
C1
C1
C1
C1
ENDCHAR
STARTCHAR ograve
ENCODING 242
SWIDTH 266 0
DWIDTH 5 0
BBX 5 15 0 0
BITMAP
40
60
20
00
70
50
48
48
88
88
88
88
90
50
60
ENDCHAR
STARTCHAR oacute
ENCODING 243
SWIDTH 266 0
DWIDTH 5 0
BBX 5 15 0 0
BITMAP
10
10
20
00
70
50
48
48
88
88
88
88
90
50
60
ENDCHAR
STARTCHAR ocircumflex
ENCODING 244
SWIDTH 266 0
DWIDTH 5 0
BBX 7 19 -1 0
BITMAP
10
30
28
44
42
80
00
00
38
28
24
24
44
44
44
44
48
28
30
ENDCHAR
STARTCHAR otilde
ENCODING 245
SWIDTH 266 0
DWIDTH 5 0
BBX 8 15 -1 0
BITMAP
71
CB
0C
00
38
28
24
24
44
44
44
44
48
28
30
ENDCHAR
STARTCHAR odieresis
ENCODING 246
SWIDTH 266 0
DWIDTH 5 0
BBX 5 15 0 0
BITMAP
58
00
00
00
70
50
48
48
88
88
88
88
90
50
60
ENDCHAR
STARTCHAR divide
ENCODING 247
SWIDTH 345 0
DWIDTH 7 0
BBX 6 7 0 2
BITMAP
10
10
04
FC
00
10
10
ENDCHAR
STARTCHAR oslash
ENCODING 248
SWIDTH 266 0
DWIDTH 5 0
BBX 5 14 0 -2
BITMAP
08
78
58
58
58
98
A8
A8
C8
D0
50
E0
80
80
ENDCHAR
STARTCHAR ugrave
ENCODING 249
SWIDTH 387 0
DWIDTH 8 0
BBX 6 15 1 0
BITMAP
40
20
30
00
00
88
88
88
88
88
88
88
9C
B4
64
ENDCHAR
STARTCHAR uacute
ENCODING 250
SWIDTH 387 0
DWIDTH 8 0
BBX 6 15 1 0
BITMAP
10
10
30
00
00
88
88
88
88
88
88
88
9C
B4
64
ENDCHAR
STARTCHAR ucircumflex
ENCODING 251
SWIDTH 387 0
DWIDTH 8 0
BBX 7 19 0 0
BITMAP
10
38
2C
44
42
80
00
00
00
44
44
44
44
44
44
44
4E
5A
32
ENDCHAR
STARTCHAR udieresis
ENCODING 252
SWIDTH 387 0
DWIDTH 8 0
BBX 6 15 1 0
BITMAP
58
00
00
00
00
88
88
88
88
88
88
88
9C
B4
64
ENDCHAR
STARTCHAR yacute
ENCODING 253
SWIDTH 363 0
DWIDTH 7 0
BBX 7 22 0 -7
BITMAP
08
08
10
00
00
02
C2
42
22
22
12
1A
0E
06
06
06
04
04
04
04
04
04
ENDCHAR
STARTCHAR thorn
ENCODING 254
SWIDTH 439 0
DWIDTH 9 0
BBX 7 13 1 0
BITMAP
80
9E
E2
82
84
8C
98
B0
C0
80
80
80
80
ENDCHAR
STARTCHAR ydieresis
ENCODING 255
SWIDTH 363 0
DWIDTH 7 0
BBX 7 22 0 -7
BITMAP
2C
00
00
00
00
02
C2
42
22
22
12
1A
0E
06
06
06
04
04
04
04
04
04
ENDCHAR
STARTCHAR Amacron
ENCODING 256
SWIDTH 390 0
DWIDTH 8 0
BBX 10 18 0 0
BITMAP
1E00
E000
0000
2000
3000
3000
3000
2800
6800
4800
4400
47C0
4C00
7600
4200
4200
4200
0100
ENDCHAR
STARTCHAR amacron
ENCODING 257
SWIDTH 366 0
DWIDTH 7 0
BBX 7 15 0 0
BITMAP
1E
E0
00
00
0C
1C
34
24
6C
4C
DA
92
B2
E2
42
ENDCHAR
STARTCHAR Abreve
ENCODING 258
SWIDTH 390 0
DWIDTH 8 0
BBX 9 19 1 0
BITMAP
8800
D800
7000
0000
4000
6000
6000
6000
5000
D000
9000
8800
8F80
9800
EC00
8400
8400
8400
0200
ENDCHAR
STARTCHAR abreve
ENCODING 259
SWIDTH 366 0
DWIDTH 7 0
BBX 7 15 0 0
BITMAP
44
24
18
00
0C
1C
34
24
6C
4C
DA
92
B2
E2
42
ENDCHAR
STARTCHAR Aogonek
ENCODING 260
SWIDTH 390 0
DWIDTH 8 0
BBX 9 20 1 -5
BITMAP
4000
6000
6000
6000
5000
D000
9000
8800
8F80
9800
EC00
8400
8400
8400
0200
0400
0800
0800
0980
0700
ENDCHAR
STARTCHAR aogonek
ENCODING 261
SWIDTH 366 0
DWIDTH 7 0
BBX 9 15 0 -4
BITMAP
0C00
1C00
3400
2400
6C00
4C00
DA00
9200
B200
E200
4600
0400
0800
0880
0780
ENDCHAR
STARTCHAR Cacute
ENCODING 262
SWIDTH 487 0
DWIDTH 10 0
BBX 9 18 0 0
BITMAP
0400
0400
0800
0400
1A00
1200
2000
2000
2000
4000
4000
4000
4080
4080
8100
4300
4400
3800
ENDCHAR
STARTCHAR cacute
ENCODING 263
SWIDTH 390 0
DWIDTH 8 0
BBX 6 17 1 0
BITMAP
10
30
20
00
00
20
50
90
90
80
80
80
84
84
84
88
70
ENDCHAR
STARTCHAR Ccircumflex
ENCODING 264
SWIDTH 487 0
DWIDTH 10 0
BBX 9 20 0 0
BITMAP
0800
1C00
1400
2200
2100
4400
1A00
1200
2000
2000
2000
4000
4000
4000
4080
4080
8100
4300
4400
3800
ENDCHAR
STARTCHAR ccircumflex
ENCODING 265
SWIDTH 390 0
DWIDTH 8 0
BBX 7 19 0 0
BITMAP
10
18
2C
44
42
80
00
10
28
48
48
40
40
40
82
42
42
44
38
ENDCHAR
STARTCHAR Cdotaccent
ENCODING 266
SWIDTH 487 0
DWIDTH 10 0
BBX 9 17 0 0
BITMAP
0800
0000
0400
1A00
1200
2000
2000
2000
4000
4000
4000
4080
4080
8100
4300
4400
3800
ENDCHAR
STARTCHAR cdotaccent
ENCODING 267
SWIDTH 390 0
DWIDTH 8 0
BBX 7 13 0 0
BITMAP
30
10
28
48
48
40
40
40
82
82
42
44
38
ENDCHAR
STARTCHAR Ccaron
ENCODING 268
SWIDTH 487 0
DWIDTH 10 0
BBX 9 19 0 0
BITMAP
2100
1200
1400
0800
0400
1A00
1200
2000
2000
2000
4000
4000
4000
4080
4080
8100
4300
4400
3800
ENDCHAR
STARTCHAR ccaron
ENCODING 269
SWIDTH 390 0
DWIDTH 8 0
BBX 6 16 1 0
BITMAP
84
48
50
20
20
50
90
90
80
80
80
84
84
84
88
70
ENDCHAR
STARTCHAR Dcaron
ENCODING 270
SWIDTH 554 0
DWIDTH 11 0
BBX 11 19 0 0
BITMAP
1080
1100
0A00
0400
2000
3E00
61C0
A040
2020
2020
2040
2040
2080
2180
2300
2600
1400
1800
1000
ENDCHAR
STARTCHAR Emacron
ENCODING 274
SWIDTH 474 0
DWIDTH 10 0
BBX 8 17 1 0
BITMAP
1E
E0
02
9C
F0
C0
80
80
84
98
E0
C0
C1
C6
C8
F0
C0
ENDCHAR
STARTCHAR emacron
ENCODING 275
SWIDTH 461 0
DWIDTH 9 0
BBX 9 15 0 0
BITMAP
0F00
7000
0000
0000
0800
1E00
2200
2400
7800
6000
C180
4100
4200
4400
3800
ENDCHAR
STARTCHAR Ebreve
ENCODING 276
SWIDTH 474 0
DWIDTH 10 0
BBX 8 19 1 0
BITMAP
44
24
18
00
02
9C
F0
C0
80
80
84
98
E0
C0
C1
C6
C8
F0
C0
ENDCHAR
STARTCHAR ebreve
ENCODING 277
SWIDTH 461 0
DWIDTH 9 0
BBX 9 15 0 0
BITMAP
2200
1200
0C00
0000
0800
1E00
2200
2400
7800
6000
C180
4100
4200
4400
3800
ENDCHAR
STARTCHAR Edotaccent
ENCODING 278
SWIDTH 474 0
DWIDTH 10 0
BBX 8 16 1 0
BITMAP
30
02
9C
F0
C0
80
80
84
98
E0
C0
C1
C6
C8
F0
C0
ENDCHAR
STARTCHAR edotaccent
ENCODING 279
SWIDTH 461 0
DWIDTH 9 0
BBX 9 12 0 0
BITMAP
0800
0800
1E00
2200
2400
7800
6000
C180
4100
4200
4400
3800
ENDCHAR
STARTCHAR Eogonek
ENCODING 280
SWIDTH 474 0
DWIDTH 10 0
BBX 8 17 1 -2
BITMAP
02
9C
F0
C0
80
80
84
98
E0
C0
C1
C6
C8
F0
D0
13
0E
ENDCHAR
STARTCHAR eogonek
ENCODING 281
SWIDTH 461 0
DWIDTH 9 0
BBX 9 15 0 -4
BITMAP
0800
1E00
2200
2400
7800
6000
C180
4100
4200
4400
3800
1000
1000
1200
1E00
ENDCHAR
STARTCHAR Ecaron
ENCODING 282
SWIDTH 474 0
DWIDTH 10 0
BBX 8 18 1 0
BITMAP
82
44
38
22
9C
F0
C0
80
80
84
98
E0
C0
C1
C6
C8
F0
C0
ENDCHAR
STARTCHAR ecaron
ENCODING 283
SWIDTH 461 0
DWIDTH 9 0
BBX 9 16 0 0
BITMAP
4100
2200
1400
0800
0000
0800
1E00
2200
2400
7800
6000
C180
4100
4200
4400
3800
ENDCHAR
STARTCHAR Gcircumflex
ENCODING 284
SWIDTH 591 0
DWIDTH 12 0
BBX 11 21 0 -2
BITMAP
0400
0E00
0A00
1100
1080
2000
0300
0400
0800
1000
2000
20E0
43C0
4040
40C0
81C0
8340
7E40
3840
0040
0040
ENDCHAR
STARTCHAR gcircumflex
ENCODING 285
SWIDTH 437 0
DWIDTH 9 0
BBX 8 28 0 -9
BITMAP
10
18
24
22
43
40
00
00
0E
12
26
27
47
4B
4B
91
F1
61
01
01
01
01
03
02
02
04
38
10
ENDCHAR
STARTCHAR Gbreve
ENCODING 286
SWIDTH 591 0
DWIDTH 12 0
BBX 11 19 0 -2
BITMAP
0880
0D80
0700
0000
0300
0400
0800
1000
2000
20E0
43C0
4040
40C0
81C0
8340
7E40
3840
0040
0040
ENDCHAR
STARTCHAR gbreve
ENCODING 287
SWIDTH 437 0
DWIDTH 9 0
BBX 8 25 0 -9
BITMAP
22
36
1C
00
00
0E
12
26
27
47
4B
4B
91
F1
61
01
01
01
01
03
02
02
04
38
10
ENDCHAR
STARTCHAR Gdotaccent
ENCODING 288
SWIDTH 591 0
DWIDTH 12 0
BBX 11 18 1 -2
BITMAP
0C00
0000
0000
0700
0C00
1000
2000
2000
41E0
47C0
80C0
8180
8180
8680
FC80
7080
0080
00C0
ENDCHAR
STARTCHAR gdotaccent
ENCODING 289
SWIDTH 437 0
DWIDTH 9 0
BBX 8 22 0 -9
BITMAP
04
00
0E
12
26
27
47
4B
4B
91
F1
61
01
01
01
01
03
02
02
04
38
10
ENDCHAR
STARTCHAR Gcommaaccent
ENCODING 290
SWIDTH 591 0
DWIDTH 12 0
BBX 11 19 0 -6
BITMAP
0300
0400
0800
1000
2000
20E0
43C0
4040
40C0
81C0
8340
7E40
3840
0040
0040
0400
0600
0400
0400
ENDCHAR
STARTCHAR Hcircumflex
ENCODING 292
SWIDTH 424 0
DWIDTH 9 0
BBX 8 21 0 0
BITMAP
10
18
2C
44
42
80
00
00
42
42
42
42
42
42
4E
72
61
41
41
41
41
ENDCHAR
STARTCHAR hcircumflex
ENCODING 293
SWIDTH 466 0
DWIDTH 9 0
BBX 9 19 1 0
BITMAP
0800
0C00
1200
1300
A180
A000
8000
8000
8000
8E00
9900
B100
B100
A100
E100
C100
C100
8100
8100
ENDCHAR
STARTCHAR Hbar
ENCODING 294
SWIDTH 424 0
DWIDTH 9 0
BBX 8 13 0 0
BITMAP
42
42
42
FF
42
42
4E
72
61
41
41
41
41
ENDCHAR
STARTCHAR hbar
ENCODING 295
SWIDTH 466 0
DWIDTH 9 0
BBX 10 15 -1 0
BITMAP
2000
2000
2000
2000
3E00
E380
2640
2C40
2C40
2840
3840
3040
3040
2040
2040
ENDCHAR
STARTCHAR Itilde
ENCODING 296
SWIDTH 153 0
DWIDTH 3 0
BBX 7 19 -2 0
BITMAP
F2
96
0C
00
10
10
10
10
10
10
10
10
10
10
10
10
10
08
08
ENDCHAR
STARTCHAR itilde
ENCODING 297
SWIDTH 132 0
DWIDTH 3 0
BBX 7 16 -2 0
BITMAP
60
B6
9C
00
00
10
10
10
10
10
10
10
10
10
10
10
ENDCHAR
STARTCHAR imacron
ENCODING 299
SWIDTH 132 0
DWIDTH 3 0
BBX 7 15 -2 0
BITMAP
1E
E0
00
00
10
10
10
10
10
10
10
10
10
10
10
ENDCHAR
STARTCHAR Ibreve
ENCODING 300
SWIDTH 153 0
DWIDTH 3 0
BBX 5 20 -1 0
BITMAP
88
58
70
00
00
20
20
20
20
20
20
20
20
20
20
20
20
20
10
10
ENDCHAR
STARTCHAR ibreve
ENCODING 301
SWIDTH 132 0
DWIDTH 3 0
BBX 5 16 -1 0
BITMAP
88
D8
70
00
00
20
20
20
20
20
20
20
20
20
20
20
ENDCHAR
STARTCHAR Iogonek
ENCODING 302
SWIDTH 153 0
DWIDTH 3 0
BBX 5 19 0 -4
BITMAP
40
40
40
40
40
40
40
40
40
40
40
40
40
40
60
C0
80
98
70
ENDCHAR
STARTCHAR iogonek
ENCODING 303
SWIDTH 132 0
DWIDTH 3 0
BBX 5 20 -1 -5
BITMAP
40
00
00
00
20
20
20
20
20
20
20
20
20
20
20
40
40
C0
78
20
ENDCHAR
STARTCHAR Idotaccent
ENCODING 304
SWIDTH 153 0
DWIDTH 3 0
BBX 1 18 1 0
BITMAP
80
00
00
80
80
80
80
80
80
80
80
80
80
80
80
80
80
80
ENDCHAR
STARTCHAR dotlessi
ENCODING 305
SWIDTH 132 0
DWIDTH 3 0
BBX 1 11 1 0
BITMAP
80
80
80
80
80
80
80
80
80
80
80
ENDCHAR
STARTCHAR Jcircumflex
ENCODING 308
SWIDTH 371 0
DWIDTH 7 0
BBX 8 21 0 -1
BITMAP
08
1C
16
22
21
40
04
04
04
04
04
04
04
06
02
02
02
82
82
42
3C
ENDCHAR
STARTCHAR jcircumflex
ENCODING 309
SWIDTH 112 0
DWIDTH 2 0
BBX 8 26 -3 -7
BITMAP
10
18
24
26
43
40
00
00
00
08
08
08
08
08
08
08
08
08
08
08
08
08
08
88
D0
30
ENDCHAR
STARTCHAR Kcommaaccent
ENCODING 310
SWIDTH 524 0
DWIDTH 10 0
BBX 9 20 1 -6
BITMAP
8000
8200
8400
8C00
8800
9000
B000
A000
C000
4000
7F80
4000
4000
4000
0000
0000
1800
0800
0800
1800
ENDCHAR
STARTCHAR kcommaaccent
ENCODING 311
SWIDTH 428 0
DWIDTH 9 0
BBX 7 21 1 -6
BITMAP
80
80
80
82
86
84
8C
98
90
A0
C0
C0
E0
9E
82
80
00
30
10
10
10
ENDCHAR
STARTCHAR Lacute
ENCODING 313
SWIDTH 537 0
DWIDTH 11 0
BBX 10 15 1 0
BITMAP
0400
0C00
8800
8000
8000
8000
8000
8000
8000
8000
80C0
8180
8600
B800
E000
ENDCHAR
STARTCHAR lacute
ENCODING 314
SWIDTH 137 0
DWIDTH 3 0
BBX 3 23 0 0
BITMAP
40
60
C0
00
00
00
80
40
40
40
40
40
40
40
40
40
40
40
40
40
40
40
40
ENDCHAR
STARTCHAR Lcommaaccent
ENCODING 315
SWIDTH 537 0
DWIDTH 11 0
BBX 10 19 1 -6
BITMAP
8000
8000
8000
8000
8000
8000
8000
8000
80C0
8180
8600
B800
E000
0000
0000
0800
0800
0800
0800
ENDCHAR
STARTCHAR lcommaaccent
ENCODING 316
SWIDTH 137 0
DWIDTH 3 0
BBX 2 23 0 -6
BITMAP
80
40
40
40
40
40
40
40
40
40
40
40
40
40
40
40
40
00
00
40
40
40
40
ENDCHAR
STARTCHAR Lcaron
ENCODING 317
SWIDTH 537 0
DWIDTH 11 0
BBX 10 18 1 0
BITMAP
8200
4400
3800
2000
0000
8000
8000
8000
8000
8000
8000
8000
8000
80C0
8180
8600
B800
E000
ENDCHAR
STARTCHAR Ldot
ENCODING 319
SWIDTH 537 0
DWIDTH 11 0
BBX 10 13 1 0
BITMAP
8000
8000
8000
8000
8000
8000
8000
8800
88C0
8180
8600
B800
E000
ENDCHAR
STARTCHAR ldot
ENCODING 320
SWIDTH 267 0
DWIDTH 5 0
BBX 5 17 0 0
BITMAP
80
40
40
40
40
40
40
40
40
40
40
58
50
40
40
40
40
ENDCHAR
STARTCHAR Lslash
ENCODING 321
SWIDTH 537 0
DWIDTH 11 0
BBX 12 13 -1 0
BITMAP
2000
2000
2000
2000
2000
2000
2300
3E00
E030
2060
2180
2E00
3800
ENDCHAR
STARTCHAR lslash
ENCODING 322
SWIDTH 137 0
DWIDTH 3 0
BBX 7 17 -2 0
BITMAP
20
10
10
10
10
10
10
10
10
10
12
1E
F0
10
10
10
10
ENDCHAR
STARTCHAR Nacute
ENCODING 323
SWIDTH 541 0
DWIDTH 11 0
BBX 9 17 1 0
BITMAP
0800
1800
3100
0100
8100
C100
C100
A100
B100
9900
8980
8580
C380
4380
4180
4080
4000
ENDCHAR
STARTCHAR nacute
ENCODING 324
SWIDTH 483 0
DWIDTH 10 0
BBX 8 16 1 0
BITMAP
08
18
10
00
84
8E
92
91
A1
A1
A1
A1
C1
C1
C1
C1
ENDCHAR
STARTCHAR Ncommaaccent
ENCODING 325
SWIDTH 541 0
DWIDTH 11 0
BBX 9 21 1 -6
BITMAP
0100
0100
8100
C100
C100
A100
B100
9900
8980
8580
C380
4380
4180
4080
4000
0000
0000
0800
0800
0800
0800
ENDCHAR
STARTCHAR ncommaaccent
ENCODING 326
SWIDTH 483 0
DWIDTH 10 0
BBX 8 18 1 -6
BITMAP
84
8E
92
91
A1
A1
A1
A1
C1
C1
C1
C1
00
00
10
10
10
10
ENDCHAR
STARTCHAR Ncaron
ENCODING 327
SWIDTH 541 0
DWIDTH 11 0
BBX 9 18 1 0
BITMAP
4300
2600
1800
1100
0100
8100
C100
C100
A100
B100
9900
8980
8580
C380
4380
4180
4080
4000
ENDCHAR
STARTCHAR ncaron
ENCODING 328
SWIDTH 483 0
DWIDTH 10 0
BBX 8 16 1 0
BITMAP
42
44
28
10
84
8E
92
91
A1
A1
A1
A1
C1
C1
C1
C1
ENDCHAR
STARTCHAR napostrophe
ENCODING 329
SWIDTH 483 0
DWIDTH 10 0
BBX 8 17 1 0
BITMAP
60
20
20
40
00
84
8E
92
91
A1
A1
A1
A1
C1
C1
C1
C1
ENDCHAR
STARTCHAR Omacron
ENCODING 332
SWIDTH 382 0
DWIDTH 8 0
BBX 8 16 0 0
BITMAP
0F
70
00
1C
22
22
42
42
42
42
82
82
86
44
48
30
ENDCHAR
STARTCHAR omacron
ENCODING 333
SWIDTH 266 0
DWIDTH 5 0
BBX 7 15 -1 0
BITMAP
1E
E0
00
00
38
28
24
24
44
44
44
44
48
28
30
ENDCHAR
STARTCHAR Obreve
ENCODING 334
SWIDTH 382 0
DWIDTH 8 0
BBX 7 17 0 0
BITMAP
44
24
18
00
1C
22
22
42
42
42
42
82
82
86
44
48
30
ENDCHAR
STARTCHAR obreve
ENCODING 335
SWIDTH 266 0
DWIDTH 5 0
BBX 5 15 0 0
BITMAP
88
48
30
00
70
50
48
48
88
88
88
88
90
50
60
ENDCHAR
STARTCHAR Ohungarumlaut
ENCODING 336
SWIDTH 382 0
DWIDTH 8 0
BBX 8 17 0 0
BITMAP
0D
0A
04
00
1C
22
22
42
42
42
42
82
82
86
44
48
30
ENDCHAR
STARTCHAR ohungarumlaut
ENCODING 337
SWIDTH 266 0
DWIDTH 5 0
BBX 5 15 0 0
BITMAP
28
58
10
00
70
50
48
48
88
88
88
88
90
50
60
ENDCHAR
STARTCHAR OE
ENCODING 338
SWIDTH 732 0
DWIDTH 15 0
BBX 14 14 0 0
BITMAP
0238
1EC0
2300
2200
4200
4218
4260
4380
8300
8304
8708
4530
49C0
3180
ENDCHAR
STARTCHAR oe
ENCODING 339
SWIDTH 628 0
DWIDTH 13 0
BBX 13 11 0 0
BITMAP
71C0
5360
4A60
4CC0
8F00
8C00
8C18
8C30
9420
54C0
6300
ENDCHAR
STARTCHAR Racute
ENCODING 340
SWIDTH 503 0
DWIDTH 10 0
BBX 9 19 1 0
BITMAP
0400
0C00
0800
8000
BF00
C180
8100
8200
8C00
B000
C000
8000
E000
B800
8E00
8180
8000
8000
8000
ENDCHAR
STARTCHAR racute
ENCODING 341
SWIDTH 396 0
DWIDTH 8 0
BBX 6 15 1 0
BITMAP
10
18
30
00
00
9C
B0
A0
A0
A0
E0
C0
40
40
40
ENDCHAR
STARTCHAR Rcommaaccent
ENCODING 342
SWIDTH 503 0
DWIDTH 10 0
BBX 9 22 1 -6
BITMAP
8000
BF00
C180
8100
8200
8C00
B000
C000
8000
E000
B800
8E00
8180
8000
8000
8000
0000
0000
1800
1800
1000
1000
ENDCHAR
STARTCHAR rcommaaccent
ENCODING 343
SWIDTH 396 0
DWIDTH 8 0
BBX 6 16 1 -6
BITMAP
9C
B0
A0
A0
A0
E0
C0
40
40
40
00
00
30
30
20
20
ENDCHAR
STARTCHAR Rcaron
ENCODING 344
SWIDTH 503 0
DWIDTH 10 0
BBX 9 20 1 0
BITMAP
4100
2200
1C00
1000
8000
BF00
C180
8100
8200
8C00
B000
C000
8000
E000
B800
8E00
8180
8000
8000
8000
ENDCHAR
STARTCHAR rcaron
ENCODING 345
SWIDTH 396 0
DWIDTH 8 0
BBX 6 16 1 0
BITMAP
84
48
50
20
00
00
9C
B0
A0
A0
A0
E0
C0
40
40
40
ENDCHAR
STARTCHAR Sacute
ENCODING 346
SWIDTH 541 0
DWIDTH 11 0
BBX 10 18 0 0
BITMAP
0200
0600
0C00
0100
0F00
1000
2000
4000
C000
8000
8000
6000
1F80
0040
0040
0180
1E00
2000
ENDCHAR
STARTCHAR sacute
ENCODING 347
SWIDTH 366 0
DWIDTH 7 0
BBX 7 15 0 0
BITMAP
08
08
10
00
00
1C
20
40
40
84
7E
02
04
0C
38
ENDCHAR
STARTCHAR Scircumflex
ENCODING 348
SWIDTH 541 0
DWIDTH 11 0
BBX 10 21 0 0
BITMAP
0400
0E00
0A00
1100
1080
2000
0100
0F00
1000
2000
4000
C000
8000
8000
6000
1F80
0040
0040
0180
1E00
2000
ENDCHAR
STARTCHAR scircumflex
ENCODING 349
SWIDTH 366 0
DWIDTH 7 0
BBX 7 16 0 0
BITMAP
10
18
2C
44
42
80
1C
20
40
40
84
7E
02
04
0C
38
ENDCHAR
STARTCHAR Scedilla
ENCODING 350
SWIDTH 541 0
DWIDTH 11 0
BBX 11 20 0 -5
BITMAP
0100
0F00
1000
2000
4000
C000
8000
8000
6000
1F80
0040
0040
0180
1E00
2200
0300
01C0
0060
0060
03C0
ENDCHAR
STARTCHAR scedilla
ENCODING 351
SWIDTH 366 0
DWIDTH 7 0
BBX 7 16 0 -6
BITMAP
1C
20
40
40
84
7E
02
04
0C
38
10
10
1C
06
02
1E
ENDCHAR
STARTCHAR Scaron
ENCODING 352
SWIDTH 541 0
DWIDTH 11 0
BBX 10 18 0 0
BITMAP
2080
1100
0E00
0900
0F00
1000
2000
4000
C000
8000
8000
6000
1F80
0040
0040
0180
1E00
2000
ENDCHAR
STARTCHAR scaron
ENCODING 353
SWIDTH 366 0
DWIDTH 7 0
BBX 7 15 0 0
BITMAP
82
44
28
10
00
1C
20
40
40
84
7E
02
04
0C
38
ENDCHAR
STARTCHAR Tcommaaccent
ENCODING 354
SWIDTH 595 0
DWIDTH 12 0
BBX 14 20 0 -6
BITMAP
03FC
7F00
8200
0300
0100
0100
0100
0100
0100
0100
0100
0100
0180
0080
0000
0000
0080
0080
0080
0080
ENDCHAR
STARTCHAR tcommaaccent
ENCODING 355
SWIDTH 268 0
DWIDTH 5 0
BBX 7 21 -1 -6
BITMAP
20
20
20
20
2E
78
E0
20
20
20
20
20
20
20
30
00
00
10
10
10
10
ENDCHAR
STARTCHAR Tcaron
ENCODING 356
SWIDTH 595 0
DWIDTH 12 0
BBX 14 20 0 0
BITMAP
0820
0440
0280
0100
0000
0000
03FC
7F00
8200
0300
0100
0100
0100
0100
0100
0100
0100
0100
0180
0080
ENDCHAR
STARTCHAR Tbar
ENCODING 358
SWIDTH 595 0
DWIDTH 12 0
BBX 14 14 0 0
BITMAP
03FC
7F00
8200
0200
07C0
1900
0100
0100
0100
0100
0100
0100
0180
0080
ENDCHAR
STARTCHAR Utilde
ENCODING 360
SWIDTH 450 0
DWIDTH 9 0
BBX 8 19 1 -2
BITMAP
73
96
0C
00
00
82
82
82
82
86
86
86
86
8E
8A
D2
61
01
01
ENDCHAR
STARTCHAR utilde
ENCODING 361
SWIDTH 387 0
DWIDTH 8 0
BBX 8 14 0 0
BITMAP
73
92
0C
00
44
44
44
44
44
44
44
4E
5A
32
ENDCHAR
STARTCHAR Umacron
ENCODING 362
SWIDTH 450 0
DWIDTH 9 0
BBX 8 17 1 -2
BITMAP
1E
E0
00
82
82
82
82
86
86
86
86
8E
8A
D2
61
01
01
ENDCHAR
STARTCHAR umacron
ENCODING 363
SWIDTH 387 0
DWIDTH 8 0
BBX 7 15 0 0
BITMAP
1E
E0
00
00
00
44
44
44
44
44
44
44
4E
5A
32
ENDCHAR
STARTCHAR Ubreve
ENCODING 364
SWIDTH 450 0
DWIDTH 9 0
BBX 8 17 1 -2
BITMAP
44
2C
38
82
82
82
82
86
86
86
86
8E
8A
D2
61
01
01
ENDCHAR
STARTCHAR ubreve
ENCODING 365
SWIDTH 387 0
DWIDTH 8 0
BBX 6 15 1 0
BITMAP
44
48
30
00
00
88
88
88
88
88
88
88
9C
B4
64
ENDCHAR
STARTCHAR Uring
ENCODING 366
SWIDTH 450 0
DWIDTH 9 0
BBX 8 19 1 -2
BITMAP
10
6C
44
38
00
82
82
82
82
86
86
86
86
8E
8A
D2
61
01
01
ENDCHAR
STARTCHAR uring
ENCODING 367
SWIDTH 387 0
DWIDTH 8 0
BBX 6 14 1 0
BITMAP
10
68
48
78
88
88
88
88
88
88
88
9C
B4
64
ENDCHAR
STARTCHAR Uhungarumlaut
ENCODING 368
SWIDTH 450 0
DWIDTH 9 0
BBX 8 18 1 -2
BITMAP
34
68
10
00
82
82
82
82
86
86
86
86
8E
8A
D2
61
01
01
ENDCHAR
STARTCHAR uhungarumlaut
ENCODING 369
SWIDTH 387 0
DWIDTH 8 0
BBX 6 13 1 0
BITMAP
68
D0
20
88
88
88
88
88
88
88
9C
B4
64
ENDCHAR
STARTCHAR Uogonek
ENCODING 370
SWIDTH 450 0
DWIDTH 9 0
BBX 9 17 1 -5
BITMAP
8200
8200
8200
8200
8600
8600
8600
8600
8E00
8A00
D200
6100
0300
0700
0400
0400
0780
ENDCHAR
STARTCHAR uogonek
ENCODING 371
SWIDTH 387 0
DWIDTH 8 0
BBX 8 15 1 -5
BITMAP
88
88
88
88
88
88
88
9C
B4
64
08
10
10
1B
0C
ENDCHAR
STARTCHAR Wcircumflex
ENCODING 372
SWIDTH 878 0
DWIDTH 18 0
BBX 17 21 0 0
BITMAP
008000
01C000
014000
022000
021000
040000
000080
000080
004100
C0C100
40C100
40E100
20A200
212200
213200
311200
121400
120C00
1A0C00
0C0400
0C0000
ENDCHAR
STARTCHAR wcircumflex
ENCODING 373
SWIDTH 566 0
DWIDTH 11 0
BBX 10 19 1 0
BITMAP
0800
1800
1400
2200
2100
4000
0000
0000
0000
9880
9880
9480
5280
5280
7180
31C0
30C0
30C0
1000
ENDCHAR
STARTCHAR Ycircumflex
ENCODING 374
SWIDTH 483 0
DWIDTH 10 0
BBX 9 22 0 0
BITMAP
0800
1C00
1400
2200
2100
4000
0080
0080
0080
8080
4100
6100
2100
1200
0A00
0600
0400
0400
0400
0800
0800
0800
ENDCHAR
STARTCHAR ycircumflex
ENCODING 375
SWIDTH 363 0
DWIDTH 7 0
BBX 7 26 0 -7
BITMAP
10
30
28
44
42
80
00
00
00
02
C2
42
22
22
12
1A
0E
06
06
06
04
04
04
04
04
04
ENDCHAR
STARTCHAR Ydieresis
ENCODING 376
SWIDTH 483 0
DWIDTH 10 0
BBX 9 16 0 0
BITMAP
0080
1680
0080
8080
4100
6100
2100
1200
0A00
0600
0400
0400
0400
0800
0800
0800
ENDCHAR
STARTCHAR Zacute
ENCODING 377
SWIDTH 670 0
DWIDTH 13 0
BBX 13 19 0 0
BITMAP
0200
0300
0600
0000
0000
7FE0
0060
0040
0080
0180
0300
0600
0400
0800
1800
3000
2000
4038
FFF0
ENDCHAR
STARTCHAR zacute
ENCODING 378
SWIDTH 618 0
DWIDTH 12 0
BBX 12 15 1 0
BITMAP
0200
0600
0C00
0000
0000
0600
3E00
C400
0400
0800
0800
1000
1030
37E0
3C00
ENDCHAR
STARTCHAR Zdotaccent
ENCODING 379
SWIDTH 670 0
DWIDTH 13 0
BBX 13 16 0 0
BITMAP
0200
0000
7FE0
0060
0040
0080
0180
0300
0600
0400
0800
1800
3000
2000
4038
FFF0
ENDCHAR
STARTCHAR zdotaccent
ENCODING 380
SWIDTH 618 0
DWIDTH 12 0
BBX 12 12 1 0
BITMAP
0C00
0000
0600
3E00
C400
0400
0800
0800
1000
1030
37E0
3C00
ENDCHAR
STARTCHAR Zcaron
ENCODING 381
SWIDTH 670 0
DWIDTH 13 0
BBX 13 19 0 0
BITMAP
0840
0480
0500
0200
0000
7FE0
0060
0040
0080
0180
0300
0600
0400
0800
1800
3000
2000
4038
FFF0
ENDCHAR
STARTCHAR zcaron
ENCODING 382
SWIDTH 618 0
DWIDTH 12 0
BBX 12 15 1 0
BITMAP
4100
2200
1400
0800
0000
0600
3E00
C400
0400
0800
0800
1000
1030
37E0
3C00
ENDCHAR
STARTCHAR florin
ENCODING 402
SWIDTH 345 0
DWIDTH 7 0
BBX 8 23 -1 -5
BITMAP
0C
1C
1A
10
10
10
10
10
17
1C
70
10
10
10
10
10
10
10
18
18
18
18
F0
ENDCHAR
STARTCHAR AEacute
ENCODING 508
SWIDTH 708 0
DWIDTH 14 0
BBX 13 19 1 0
BITMAP
0400
0C00
0800
0000
4030
6CC0
6700
6400
5400
D420
9440
8D80
8E00
9C00
EC18
8420
84C0
8700
0200
ENDCHAR
STARTCHAR aeacute
ENCODING 509
SWIDTH 705 0
DWIDTH 14 0
BBX 14 15 0 0
BITMAP
0080
0180
0300
0000
0CE0
1D90
3530
27C0
6F00
4E04
DA08
9218
B230
E3C0
4200
ENDCHAR
STARTCHAR Oslashacute
ENCODING 510
SWIDTH 382 0
DWIDTH 8 0
BBX 7 20 0 -2
BITMAP
04
0C
18
00
06
1C
26
26
4A
4A
4A
52
92
92
A6
64
68
70
40
40
ENDCHAR
STARTCHAR oslashacute
ENCODING 511
SWIDTH 266 0
DWIDTH 5 0
BBX 5 18 0 -2
BITMAP
10
10
20
00
08
78
58
58
58
98
A8
A8
C8
D0
50
E0
80
80
ENDCHAR
STARTCHAR Scommaaccent
ENCODING 536
SWIDTH 541 0
DWIDTH 11 0
BBX 10 21 0 -6
BITMAP
0100
0F00
1000
2000
4000
C000
8000
8000
6000
1F80
0040
0040
0180
1E00
2000
0000
0000
0400
0400
0400
0400
ENDCHAR
STARTCHAR scommaaccent
ENCODING 537
SWIDTH 366 0
DWIDTH 7 0
BBX 7 16 0 -6
BITMAP
1C
20
40
40
84
7E
02
04
0C
38
00
00
10
10
10
10
ENDCHAR
STARTCHAR circumflex
ENCODING 710
SWIDTH 390 0
DWIDTH 8 0
BBX 7 6 1 13
BITMAP
20
30
48
48
86
80
ENDCHAR
STARTCHAR caron
ENCODING 711
SWIDTH 390 0
DWIDTH 8 0
BBX 7 4 1 12
BITMAP
82
44
38
20
ENDCHAR
STARTCHAR breve
ENCODING 728
SWIDTH 390 0
DWIDTH 8 0
BBX 5 3 1 12
BITMAP
88
58
30
ENDCHAR
STARTCHAR dotaccent
ENCODING 729
SWIDTH 128 0
DWIDTH 3 0
BBX 2 1 0 11
BITMAP
C0
ENDCHAR
STARTCHAR ring
ENCODING 730
SWIDTH 266 0
DWIDTH 5 0
BBX 5 4 0 10
BITMAP
20
58
88
70
ENDCHAR
STARTCHAR ogonek
ENCODING 731
SWIDTH 366 0
DWIDTH 7 0
BBX 5 5 2 -5
BITMAP
40
80
80
98
70
ENDCHAR
STARTCHAR tilde
ENCODING 732
SWIDTH 458 0
DWIDTH 9 0
BBX 7 3 1 11
BITMAP
F2
96
0C
ENDCHAR
STARTCHAR hungarumlaut
ENCODING 733
SWIDTH 239 0
DWIDTH 5 0
BBX 5 3 0 9
BITMAP
68
D0
20
ENDCHAR
STARTCHAR Wgrave
ENCODING 7808
SWIDTH 878 0
DWIDTH 18 0
BBX 17 19 0 0
BITMAP
008000
008000
004000
000000
000080
000080
004100
C0C100
40C100
40E100
20A200
212200
213200
311200
121400
120C00
1A0C00
0C0400
0C0000
ENDCHAR
STARTCHAR wgrave
ENCODING 7809
SWIDTH 566 0
DWIDTH 11 0
BBX 10 15 1 0
BITMAP
1000
1800
0800
0000
0000
9880
9880
9480
5280
5280
7180
31C0
30C0
30C0
1000
ENDCHAR
STARTCHAR Wacute
ENCODING 7810
SWIDTH 878 0
DWIDTH 18 0
BBX 17 19 0 0
BITMAP
008000
008000
010000
000000
000080
000080
004100
C0C100
40C100
40E100
20A200
212200
213200
311200
121400
120C00
1A0C00
0C0400
0C0000
ENDCHAR
STARTCHAR wacute
ENCODING 7811
SWIDTH 566 0
DWIDTH 11 0
BBX 10 15 1 0
BITMAP
0400
0400
0800
0000
0000
9880
9880
9480
5280
5280
7180
31C0
30C0
30C0
1000
ENDCHAR
STARTCHAR Wdieresis
ENCODING 7812
SWIDTH 878 0
DWIDTH 18 0
BBX 17 17 0 0
BITMAP
012000
000000
000080
000080
004100
C0C100
40C100
40E100
20A200
212200
213200
311200
121400
120C00
1A0C00
0C0400
0C0000
ENDCHAR
STARTCHAR wdieresis
ENCODING 7813
SWIDTH 566 0
DWIDTH 11 0
BBX 10 15 1 0
BITMAP
1600
0000
0000
0000
0000
9880
9880
9480
5280
5280
7180
31C0
30C0
30C0
1000
ENDCHAR
STARTCHAR Ygrave
ENCODING 7922
SWIDTH 483 0
DWIDTH 10 0
BBX 9 20 0 0
BITMAP
0800
0800
0400
0000
0080
0080
0080
8080
4100
6100
2100
1200
0A00
0600
0400
0400
0400
0800
0800
0800
ENDCHAR
STARTCHAR ygrave
ENCODING 7923
SWIDTH 363 0
DWIDTH 7 0
BBX 7 22 0 -7
BITMAP
20
30
10
00
00
02
C2
42
22
22
12
1A
0E
06
06
06
04
04
04
04
04
04
ENDCHAR
STARTCHAR endash
ENCODING 8211
SWIDTH 399 0
DWIDTH 8 0
BBX 8 3 0 4
BITMAP
01
0F
F0
ENDCHAR
STARTCHAR emdash
ENCODING 8212
SWIDTH 549 0
DWIDTH 11 0
BBX 10 2 0 4
BITMAP
03C0
FC00
ENDCHAR
STARTCHAR quoteleft
ENCODING 8216
SWIDTH 155 0
DWIDTH 3 0
BBX 1 6 1 7
BITMAP
80
80
80
80
80
80
ENDCHAR
STARTCHAR quoteright
ENCODING 8217
SWIDTH 155 0
DWIDTH 3 0
BBX 1 6 1 7
BITMAP
80
80
80
80
80
80
ENDCHAR
STARTCHAR quotesinglbase
ENCODING 8218
SWIDTH 155 0
DWIDTH 3 0
BBX 1 6 1 0
BITMAP
80
80
80
80
80
80
ENDCHAR
STARTCHAR quotedblleft
ENCODING 8220
SWIDTH 212 0
DWIDTH 4 0
BBX 3 6 1 10
BITMAP
C0
A0
A0
A0
A0
80
ENDCHAR
STARTCHAR quotedblright
ENCODING 8221
SWIDTH 212 0
DWIDTH 4 0
BBX 3 6 1 10
BITMAP
C0
A0
A0
A0
A0
80
ENDCHAR
STARTCHAR quotedblbase
ENCODING 8222
SWIDTH 212 0
DWIDTH 4 0
BBX 3 6 1 0
BITMAP
80
A0
A0
A0
A0
A0
ENDCHAR
STARTCHAR dagger
ENCODING 8224
SWIDTH 268 0
DWIDTH 5 0
BBX 7 15 -1 0
BITMAP
20
20
20
20
2E
78
E0
20
20
20
20
20
20
20
30
ENDCHAR
STARTCHAR daggerdbl
ENCODING 8225
SWIDTH 326 0
DWIDTH 7 0
BBX 7 15 0 0
BITMAP
20
20
20
20
2C
78
E0
2E
70
A0
20
20
20
20
30
ENDCHAR
STARTCHAR bullet
ENCODING 8226
SWIDTH 189 0
DWIDTH 4 0
BBX 2 2 1 5
BITMAP
C0
C0
ENDCHAR
STARTCHAR ellipsis
ENCODING 8230
SWIDTH 387 0
DWIDTH 8 0
BBX 7 1 0 0
BITMAP
DA
ENDCHAR
STARTCHAR guilsinglleft
ENCODING 8249
SWIDTH 409 0
DWIDTH 8 0
BBX 7 10 1 3
BITMAP
02
06
0C
18
20
C0
C0
60
18
0E
ENDCHAR
STARTCHAR guilsinglright
ENCODING 8250
SWIDTH 450 0
DWIDTH 9 0
BBX 7 11 1 2
BITMAP
C0
60
18
06
02
04
08
10
60
C0
80
ENDCHAR
STARTCHAR fraction
ENCODING 8260
SWIDTH 306 0
DWIDTH 6 0
BBX 6 16 0 -2
BITMAP
0C
08
08
08
10
10
10
20
20
20
40
40
40
80
80
80
ENDCHAR
STARTCHAR Euro
ENCODING 8364
SWIDTH 589 0
DWIDTH 12 0
BBX 11 15 0 0
BITMAP
0100
0680
0440
0800
0800
0800
1200
7C00
1000
1700
3800
D020
1020
10C0
0F80
ENDCHAR
STARTCHAR trademark
ENCODING 8482
SWIDTH 1278 0
DWIDTH 26 0
BBX 25 15 0 0
BITMAP
000E0200
03FE0200
7F050600
82050500
03048500
01048900
01044900
01044900
01043100
01043100
01061100
01060100
01060180
01860080
00860080
ENDCHAR
STARTCHAR minus
ENCODING 8722
SWIDTH 358 0
DWIDTH 7 0
BBX 6 2 1 5
BITMAP
04
FC
ENDCHAR
STARTCHAR commaaccent
ENCODING 63171
SWIDTH 450 0
DWIDTH 9 0
BBX 2 4 3 -6
BITMAP
C0
40
40
40
ENDCHAR
STARTCHAR fi
ENCODING 64257
SWIDTH 409 0
DWIDTH 8 0
BBX 7 18 0 0
BITMAP
18
38
34
22
20
20
20
22
2E
3A
E2
22
22
22
22
22
22
22
ENDCHAR
STARTCHAR fl
ENCODING 64258
SWIDTH 416 0
DWIDTH 8 0
BBX 8 18 0 0
BITMAP
18
3A
36
22
22
22
22
22
2E
3A
E2
22
21
21
21
23
23
23
ENDCHAR
STARTCHAR .notdef
ENCODING -1
SWIDTH 450 0
DWIDTH 9 0
BBX 1 1 0 0
BITMAP
00
ENDCHAR
STARTCHAR .null
ENCODING -1
SWIDTH 0 0
DWIDTH 0 0
BBX 1 1 0 0
BITMAP
00
ENDCHAR
STARTCHAR nonmarkingreturn
ENCODING -1
SWIDTH 450 0
DWIDTH 9 0
BBX 1 1 0 0
BITMAP
00
ENDCHAR
ENDFONT
